<?xml version="1.0" standalone="no"?>
<!DOCTYPE svg PUBLIC "-//W3C//DTD SVG 20010904//EN"
 "http://www.w3.org/TR/2001/REC-SVG-20010904/DTD/svg10.dtd">
<svg version="1.0" xmlns="http://www.w3.org/2000/svg"
 width="1000.000000pt" height="1000.000000pt" viewBox="0 0 1000.000000 1000.000000"
 preserveAspectRatio="xMidYMid meet">
<metadata>
Created by potrace 1.11, written by Peter Selinger 2001-2013
</metadata>
<g transform="translate(0.000000,1000.000000) scale(0.100000,-0.100000)"
fill="#000000" stroke="none">
<path d="M7245 9935 c-5 -2 -49 -15 -97 -30 -49 -15 -88 -31 -88 -36 0 -5 -5
-9 -11 -9 -10 0 -86 -49 -111 -72 -7 -7 -34 -29 -58 -48 -25 -19 -51 -39 -58
-45 -7 -5 -21 -18 -29 -27 -20 -20 -33 -15 -26 11 5 21 -35 58 -74 67 -12 4
-23 9 -23 13 0 4 -8 7 -17 8 -10 1 -31 5 -48 9 -59 13 -240 13 -293 0 -28 -8
-52 -12 -54 -11 -2 2 -21 -9 -43 -24 -27 -18 -41 -36 -46 -58 -3 -18 -4 -34
-2 -37 3 -2 6 -143 8 -313 1 -169 6 -317 11 -327 4 -11 4 -17 -2 -13 -5 3 -9
-14 -7 -41 1 -26 2 -47 3 -47 6 0 3 -68 -3 -72 -4 -2 -4 -9 -1 -15 4 -5 8
-148 10 -317 2 -168 6 -434 9 -591 3 -157 5 -292 5 -300 -2 -66 0 -134 4 -138
3 -2 1 -13 -5 -23 -7 -13 -6 -19 1 -19 7 0 8 -6 1 -19 -6 -10 -7 -21 -4 -25 4
-3 8 -113 9 -244 2 -265 14 -1120 15 -1130 4 -26 -9 -28 -138 -27 -76 0 -142
-1 -147 -4 -5 -2 -27 -5 -50 -7 -97 -8 -204 -25 -263 -43 -18 -5 -33 -7 -33
-4 0 3 -7 0 -15 -7 -8 -7 -15 -10 -15 -7 0 3 -15 1 -32 -4 -38 -12 -76 -20
-100 -22 -10 -1 -18 -5 -18 -9 0 -4 -6 -8 -12 -8 -24 0 -268 -93 -268 -102 0
-5 -4 -6 -10 -3 -5 3 -10 1 -10 -4 0 -6 -3 -10 -7 -9 -19 5 -233 -116 -253
-142 -3 -4 -16 -13 -29 -20 -26 -13 -40 -24 -71 -52 -10 -9 -21 -14 -24 -11
-3 3 -8 -2 -12 -11 -3 -9 -10 -16 -15 -16 -8 0 -35 -20 -64 -47 -8 -7 -16 -13
-20 -13 -6 0 -42 -34 -171 -158 -40 -38 -74 -61 -122 -79 -37 -13 -73 -29 -79
-35 -7 -6 -13 -8 -13 -5 0 3 -26 -8 -57 -26 -32 -18 -71 -39 -88 -47 -16 -8
-32 -17 -35 -20 -3 -3 -66 -36 -140 -74 -125 -63 -300 -171 -308 -188 -2 -5
-7 -8 -12 -8 -14 0 -90 -53 -90 -62 0 -5 -4 -6 -10 -3 -6 3 -10 1 -10 -4 0 -6
-6 -11 -14 -11 -8 0 -16 -3 -18 -7 -5 -12 -66 -53 -78 -53 -5 0 -10 -4 -10
-10 0 -5 -7 -10 -15 -10 -8 0 -15 -4 -15 -8 0 -5 -12 -15 -27 -23 -16 -8 -30
-16 -33 -20 -8 -8 -100 -69 -105 -69 -5 0 -30 -21 -89 -73 -17 -15 -59 -51
-93 -79 -35 -28 -63 -55 -63 -60 0 -4 -5 -8 -10 -8 -6 0 -26 -16 -45 -35 -19
-19 -35 -32 -35 -30 0 3 -18 -12 -40 -33 -21 -20 -49 -46 -62 -57 -20 -17 -99
-105 -173 -191 -11 -12 -38 -44 -60 -69 -22 -26 -53 -61 -70 -79 -28 -31 -72
-86 -86 -108 -4 -6 -20 -3 -43 6 -20 8 -36 12 -36 8 0 -4 -5 0 -10 8 -6 10
-10 11 -10 2 0 -6 -3 -11 -8 -11 -21 4 -21 -4 -1 -34 13 -17 29 -38 36 -45 16
-17 16 -29 1 -39 -15 -9 -62 -76 -104 -148 -16 -27 -34 -59 -41 -70 -7 -11
-16 -28 -19 -37 -3 -10 -11 -18 -16 -18 -5 0 -6 -4 -3 -10 3 -5 2 -10 -3 -10
-5 0 -15 -13 -22 -29 -17 -42 -34 -44 -98 -13 -74 37 -137 56 -156 49 -13 -5
-14 -11 -4 -32 6 -14 15 -25 20 -25 4 0 8 -4 8 -9 0 -5 29 -38 64 -73 64 -63
65 -64 51 -93 -11 -24 -59 -169 -69 -210 -2 -5 -6 -17 -9 -25 -23 -59 -76
-244 -81 -285 -4 -27 -9 -59 -11 -70 -3 -11 -8 -33 -11 -50 -7 -36 -8 -503 -1
-625 3 -47 14 -141 26 -210 12 -69 24 -138 26 -155 5 -38 15 -101 21 -129 2
-11 7 -34 10 -51 3 -16 10 -35 16 -42 6 -7 7 -13 3 -13 -4 0 -2 -6 4 -13 6 -8
8 -17 4 -20 -3 -4 -2 -7 3 -7 5 0 10 -8 11 -18 1 -9 10 -37 21 -62 11 -25 23
-60 27 -78 3 -18 11 -32 16 -32 6 0 7 -5 4 -10 -4 -6 -2 -16 3 -23 6 -7 15
-30 21 -52 6 -22 28 -59 48 -82 21 -23 56 -63 78 -89 22 -26 49 -58 60 -70 11
-12 47 -54 80 -93 33 -39 66 -71 73 -71 6 0 12 -4 12 -8 0 -5 16 -14 35 -22
19 -8 35 -16 35 -19 0 -4 15 -12 32 -20 18 -8 40 -19 48 -26 8 -7 35 -24 60
-37 25 -14 69 -39 98 -57 29 -17 57 -31 62 -31 6 0 10 -3 10 -8 0 -10 44 -28
115 -47 33 -9 92 -25 130 -36 39 -10 84 -22 100 -25 17 -3 48 -12 69 -19 22
-8 43 -12 48 -9 4 3 8 1 8 -4 0 -5 6 -9 13 -9 6 0 44 -8 82 -18 39 -9 102 -19
140 -21 553 -29 594 -30 680 -20 67 8 133 16 170 20 17 2 57 7 90 11 33 3 78
9 100 11 98 13 174 22 240 29 22 2 55 8 73 14 17 5 32 7 32 4 0 -3 6 -1 13 5
6 5 26 12 43 15 17 3 40 10 51 16 11 5 23 8 26 4 4 -3 13 0 22 7 8 7 15 10 15
6 0 -3 11 -1 25 4 14 5 36 12 48 15 21 4 63 15 137 36 19 5 45 12 57 14 12 3
35 10 50 16 16 6 29 10 31 10 1 -1 3 -1 5 0 1 0 9 2 17 4 57 14 137 37 150 42
8 3 18 5 23 5 4 -1 7 3 7 9 0 5 4 8 8 5 5 -3 20 1 35 9 14 7 28 11 31 7 3 -3
6 0 6 6 0 7 4 12 9 12 8 0 86 32 421 174 82 35 94 39 103 38 4 -1 7 2 7 7 0 7
26 18 60 25 3 1 16 9 30 18 57 37 303 178 311 178 5 0 9 4 9 9 0 5 10 13 23
17 12 4 24 10 27 14 3 4 17 13 33 21 82 42 275 164 271 171 -3 4 0 8 6 8 11 0
202 149 208 163 2 4 10 7 18 7 8 0 14 5 14 10 0 6 7 10 16 10 8 0 12 5 9 10
-3 6 0 10 7 10 8 0 21 8 30 18 8 9 30 28 49 42 18 14 37 30 43 35 6 6 25 19
41 29 17 11 36 28 43 38 7 10 20 18 28 18 8 0 14 3 14 8 0 4 30 39 66 77 37
39 125 133 198 209 72 77 142 150 155 163 13 13 21 23 17 23 -4 0 4 12 18 26
13 15 30 38 37 53 8 14 19 33 26 41 11 13 51 73 88 132 6 9 25 37 43 62 17 26
32 51 32 57 0 5 5 9 10 9 6 0 10 7 10 15 0 8 4 15 8 15 8 0 71 111 72 125 1 9
13 40 43 109 16 38 30 74 32 80 2 13 15 43 50 121 28 62 32 78 40 132 2 18 7
48 10 65 3 18 7 47 10 63 2 17 6 43 10 60 3 16 8 47 11 70 2 22 6 51 8 65 2
14 7 45 10 70 3 25 8 56 10 70 3 14 7 46 10 73 3 26 9 68 12 95 3 26 8 58 10
72 7 34 17 122 16 140 -1 44 -1 120 0 155 1 22 -1 60 -5 85 -14 93 -17 116
-22 160 -3 25 -8 63 -11 85 -3 22 -8 54 -9 70 -2 17 -4 30 -5 30 -2 0 -8 34
-15 85 -10 74 -10 76 -25 101 -8 13 -22 40 -32 59 -113 239 -82 198 -393 522
-79 82 -206 178 -236 178 -5 0 -9 5 -9 10 0 6 -5 10 -11 10 -6 0 -30 14 -54
30 -24 17 -48 30 -53 30 -5 0 -15 7 -22 15 -6 8 -15 14 -18 13 -4 -1 -20 4
-37 11 -36 14 -54 21 -58 20 -1 0 -18 7 -37 15 -19 8 -37 14 -40 14 -24 1 -68
34 -141 104 -85 81 -109 101 -139 115 -8 4 -60 33 -115 66 -148 88 -202 116
-209 110 -3 -4 -6 0 -6 7 0 7 -3 11 -6 7 -4 -3 -21 0 -39 8 -19 7 -36 11 -39
7 -3 -3 -6 -1 -6 5 0 13 -60 30 -195 56 l-70 13 2 50 c1 48 8 127 18 214 2 25
7 79 11 120 7 99 11 143 18 215 3 33 8 83 11 110 2 28 7 82 11 120 4 39 8 84
8 100 1 17 5 35 9 42 4 6 3 14 -3 18 -6 4 -8 11 -5 16 4 5 8 26 10 46 2 21 7
63 10 93 3 30 8 84 11 120 9 120 13 165 15 165 0 0 3 18 4 40 7 85 15 183 21
245 4 36 7 82 7 103 0 20 3 37 6 37 3 0 7 19 8 43 3 107 7 157 12 157 4 0 7
35 8 77 3 103 6 109 40 85 31 -21 75 -39 113 -46 37 -7 63 -13 101 -23 58 -16
274 -8 349 12 3 1 26 5 53 9 26 5 47 13 47 18 0 6 7 8 14 5 8 -3 29 1 45 9 17
9 35 13 41 9 5 -3 10 -1 10 6 0 7 3 10 6 6 3 -3 24 5 45 19 21 13 43 24 49 24
14 0 161 78 181 96 8 7 19 14 23 14 4 0 14 6 21 13 31 27 44 37 51 37 13 0
176 142 228 199 71 78 83 91 116 131 19 24 41 55 49 69 8 14 17 28 20 31 27
22 127 210 150 281 35 107 26 111 -111 42 -167 -84 -168 -84 -190 -72 -11 6
-17 13 -14 16 3 4 2 11 -3 17 -9 12 -33 82 -36 106 -1 8 -5 22 -8 30 -3 8 -8
35 -11 60 -5 45 -12 82 -19 110 -2 8 -7 32 -12 53 -4 20 -11 40 -16 43 -5 3
-9 14 -9 25 0 10 -3 19 -8 19 -4 0 -27 34 -51 75 -42 70 -62 96 -93 120 -7 6
-33 26 -58 45 -58 46 -95 69 -117 74 -10 1 -25 5 -33 8 -8 3 -35 11 -60 18
-25 7 -54 16 -65 20 -51 21 -197 44 -220 35z"/>
</g>
</svg>
